<?xml version="1.0" encoding="iso-8859-1"?>
<!-- Generator: Adobe Illustrator 19.0.0, SVG Export Plug-In . SVG Version: 6.00 Build 0)  -->
<svg version="1.1" id="Layer_1" xmlns="http://www.w3.org/2000/svg" xmlns:xlink="http://www.w3.org/1999/xlink" x="0px" y="0px"
	 viewBox="0 0 512 512" style="enable-background:new 0 0 512 512;" xml:space="preserve">
<g>
	<polygon style="fill:#0084FF;" points="498.642,228.585 13.358,228.585 100.556,129.918 411.444,129.918 	"/>
	<polyline style="fill:#0084FF;" points="13.358,228.585 256,502 498.642,228.585 	"/>
</g>
<g>
	<polyline style="fill:#00C3FF;" points="160.899,228.585 256,502 351.101,228.585 	"/>
	<polyline style="fill:#00C3FF;" points="100.556,129.918 160.899,228.585 256,129.918 351.101,228.585 411.444,129.918 	"/>
</g>
<path d="M506.135,221.963l-87.197-98.667c-1.898-2.148-4.627-3.378-7.493-3.378H100.556c-2.866,0-5.595,1.23-7.493,3.378
	L5.865,221.963c-2.604,2.947-3.239,7.146-1.623,10.732c0.609,1.352,1.497,2.52,2.577,3.453c0.021,0.023,0.037,0.049,0.058,0.073
	l241.642,272.415c1.898,2.14,4.621,3.364,7.481,3.364c2.86,0,5.583-1.225,7.481-3.364l241.642-272.415
	c0.021-0.023,0.038-0.049,0.058-0.073c1.079-0.933,1.967-2.102,2.577-3.453C509.374,229.109,508.739,224.91,506.135,221.963z
	 M256,146.102l72.054,72.483H183.946L256,146.102z M162.728,211.562l-44.441-71.644h115.661L162.728,211.562z M278.052,139.917
	h115.661l-44.441,71.644L278.052,139.917z M153.887,238.585l81.636,225.261L35.709,238.585H153.887z M327.972,296.21
	c-5.183-1.916-10.933,0.733-12.846,5.914l-59.035,159.777L175.16,238.585h301.131L276.848,463.428l57.038-154.372
	C335.8,303.875,333.152,298.124,327.972,296.21z M368.451,218.585l44.545-71.811l63.463,71.811L368.451,218.585L368.451,218.585z
	 M99.004,146.774l44.545,71.811H35.541L99.004,146.774z"/>
<path d="M256,71.513c5.522,0,10-4.477,10-10V10c0-5.523-4.478-10-10-10s-10,4.477-10,10v51.513
	C246,67.036,250.478,71.513,256,71.513z"/>
<path d="M303.565,93.02c2.559,0,5.118-0.977,7.071-2.929l36.426-36.425c3.905-3.905,3.905-10.237,0-14.142s-10.235-3.905-14.143,0
	l-36.426,36.425c-3.905,3.905-3.905,10.237,0,14.142C298.447,92.044,301.006,93.02,303.565,93.02z"/>
<path d="M199.416,90.091c1.953,1.953,4.512,2.929,7.071,2.929s5.118-0.977,7.071-2.929c3.905-3.905,3.905-10.237,0-14.142
	l-36.425-36.425c-3.904-3.905-10.234-3.905-14.143,0c-3.905,3.905-3.905,10.237,0,14.142L199.416,90.091z"/>
<circle cx="337.43" cy="268.36" r="10"/>
<g>
</g>
<g>
</g>
<g>
</g>
<g>
</g>
<g>
</g>
<g>
</g>
<g>
</g>
<g>
</g>
<g>
</g>
<g>
</g>
<g>
</g>
<g>
</g>
<g>
</g>
<g>
</g>
<g>
</g>
</svg>
